<svg width="30" height="30" viewBox="0 0 30 30" fill="none" xmlns="http://www.w3.org/2000/svg">
<path d="M24.3496 27.5525L21.816 25.3498L20.3879 24.0404L18.8779 22.6575L19.4983 24.8101H6.13797C4.79997 24.8054 3.71881 23.7324 3.72224 22.4128V6.69623C3.72018 5.37751 4.80094 4.30608 6.13797 4.30136H21.9338C23.2709 4.30608 24.3516 5.37751 24.3496 6.69623V27.5525ZM18.7352 17.1605C18.212 17.8525 17.4588 18.3411 16.6073 18.5408C16.9572 18.9814 17.3791 19.4795 17.3828 19.4844C18.8061 19.514 20.1537 18.8538 20.9896 17.7173C20.9468 15.3612 20.3667 13.0449 19.2923 10.9402C18.3464 10.2081 17.195 9.78084 15.9944 9.71643H15.9808L15.8157 9.90244C16.8881 10.1865 17.8882 10.6893 18.7513 11.3783C17.6531 10.7828 16.4478 10.4037 15.2028 10.2622C14.4115 10.1755 13.6125 10.1833 12.8231 10.2855C12.7673 10.2866 12.7117 10.2923 12.6568 10.3026H12.6221C11.6969 10.4077 10.7942 10.6554 9.94704 11.0368C9.52271 11.229 9.26215 11.3685 9.25099 11.3734C9.23982 11.3783 9.25099 11.3734 9.25099 11.3648C10.1665 10.6546 11.2227 10.1414 12.3516 9.85838L12.2275 9.71888H12.2201C11.0195 9.78344 9.86817 10.2107 8.92219 10.9426C7.84387 13.0459 7.26352 15.3631 7.22486 17.7197C8.05036 18.8638 9.39988 19.5265 10.823 19.4868C10.823 19.4868 11.2672 18.9532 11.6134 18.5213C10.7833 18.3155 10.0519 17.8309 9.54504 17.1507C9.55373 17.1568 9.67656 17.2388 9.87508 17.3465C9.88841 17.3619 9.9049 17.3744 9.92347 17.3832C9.93919 17.3939 9.95579 17.4033 9.9731 17.4113C9.99272 17.4201 10.0114 17.4308 10.0289 17.4432C10.3058 17.5936 10.5931 17.7245 10.8888 17.8347C11.4509 18.0543 12.0324 18.2222 12.6258 18.3365C13.1454 18.4331 13.6728 18.4823 14.2015 18.4833C14.6973 18.4833 15.1919 18.4382 15.6793 18.3487C16.2662 18.2471 16.8394 18.0796 17.3878 17.8494C17.8614 17.6698 18.3133 17.4387 18.7352 17.1605ZM16.2066 16.6379C15.6668 16.6844 15.1534 16.3992 14.9139 15.9198C14.6743 15.4404 14.7577 14.8652 15.1238 14.4712C15.4899 14.0772 16.0637 13.9453 16.5687 14.1391C17.0737 14.3328 17.4064 14.8124 17.4064 15.3469C17.4337 16.0296 16.8973 16.6062 16.2053 16.6379H16.2066ZM11.9037 16.6379C11.2248 16.5796 10.7038 16.019 10.7038 15.3469C10.7038 14.6748 11.2248 14.1142 11.9037 14.0558C12.2164 14.0568 12.5154 14.1826 12.7325 14.4046C12.9788 14.6568 13.1128 14.9956 13.1047 15.3457C13.1334 16.0296 12.5958 16.6075 11.9024 16.6379H11.9037Z" fill="#E8E6E3"/>
</svg>
