<svg width="25" height="25" viewBox="0 0 25 25" fill="none" xmlns="http://www.w3.org/2000/svg">
<path d="M12.4438 0.260254C6.34105 0.259475 1.13872 4.65697 0.161624 10.6423C-0.815473 16.6277 2.72118 22.4335 8.51131 24.3494C9.13492 24.4609 9.35818 24.0805 9.35818 23.7533C9.35818 23.4596 9.3482 22.6814 9.34446 21.6466C5.8834 22.3902 5.15253 19.9886 5.15253 19.9886C4.92468 19.2413 4.43485 18.5998 3.77185 18.1806C2.64934 17.4135 3.85791 17.4308 3.85791 17.4308C4.65698 17.5397 5.36026 18.0101 5.76242 18.7047C6.10283 19.3197 6.67634 19.7741 7.35551 19.967C8.03469 20.1599 8.76327 20.0753 9.37938 19.732C9.43728 19.105 9.71805 18.519 10.1714 18.0789C7.41001 17.7679 4.50647 16.7071 4.50647 11.9696C4.49114 10.7443 4.94911 9.55969 5.78612 8.65966C5.4074 7.59308 5.452 6.42319 5.91084 5.38813C5.91084 5.38813 6.95477 5.05478 9.33074 6.65337C11.3685 6.09821 13.5191 6.09821 15.5569 6.65337C17.9341 5.05354 18.9768 5.38813 18.9768 5.38813C19.4378 6.4227 19.4824 7.5934 19.1015 8.65966C19.9416 9.55961 20.3992 10.7473 20.3787 11.9746C20.3787 16.7245 17.4726 17.7679 14.7013 18.074C15.2991 18.6813 15.6057 19.5144 15.5432 20.3616C15.5432 22.0147 15.5282 23.3481 15.5282 23.7533C15.5282 24.0842 15.7502 24.4683 16.3851 24.3469C22.1728 22.4278 25.7056 16.6216 24.7265 10.6378C23.7474 4.65408 18.5453 0.258867 12.4438 0.260254Z" fill="#E8E6E3"/>
</svg>
