<svg width="31" height="30" viewBox="0 0 31 30" fill="none" xmlns="http://www.w3.org/2000/svg">
<path d="M15.3358 26.3789C12.2836 26.3789 11.9238 26.363 10.7326 26.3116C9.80379 26.2815 8.88696 26.0952 8.02163 25.7609C6.52444 25.1863 5.34056 24.0181 4.75848 22.5413C4.43255 21.6847 4.25675 20.7797 4.23861 19.8649C4.16913 18.6926 4.16913 18.3083 4.16913 15.3212C4.16913 12.3022 4.18526 11.9497 4.23861 10.7811C4.25714 9.86757 4.43294 8.96382 4.75848 8.10841C5.33993 6.62956 6.52573 5.46044 8.02535 4.88752C8.89219 4.5647 9.80873 4.39086 10.7351 4.37355C11.92 4.30746 12.3096 4.30746 15.3358 4.30746C18.4128 4.30746 18.7664 4.32337 19.9389 4.37355C20.8678 4.39101 21.7867 4.56483 22.6562 4.88752C24.1554 5.46109 25.3409 6.62998 25.923 8.10841C26.2545 8.97629 26.4312 9.89417 26.4454 10.8215C26.5149 11.9938 26.5149 12.3768 26.5149 15.3628C26.5149 18.3487 26.4975 18.7403 26.4454 19.8992C26.4269 20.8148 26.2507 21.7206 25.9243 22.578C25.3407 24.0559 24.1551 25.2244 22.6562 25.7989C21.788 26.1197 20.8709 26.2931 19.9439 26.3116C18.759 26.3789 18.3707 26.3789 15.3358 26.3789ZM15.2936 6.24465C12.2588 6.24465 11.9436 6.25934 10.7587 6.31196C10.0515 6.3212 9.35106 6.44992 8.68791 6.69254C7.70866 7.06212 6.93378 7.82327 6.55507 8.78759C6.30719 9.44878 6.17666 10.1471 6.1692 10.852C6.10344 12.0379 6.10344 12.3487 6.10344 15.3212C6.10344 18.2581 6.11461 18.6143 6.1692 19.7927C6.18031 20.4905 6.31077 21.1814 6.55507 21.8364C6.93434 22.8001 7.70908 23.5606 8.68791 23.9302C9.35061 24.1744 10.0513 24.3032 10.7587 24.3108C11.9597 24.3793 12.2761 24.3793 15.2936 24.3793C18.3372 24.3793 18.6523 24.3646 19.8273 24.3108C20.535 24.3023 21.2359 24.1735 21.8993 23.9302C22.8726 23.5574 23.6425 22.7986 24.021 21.8388C24.2684 21.1771 24.3989 20.4784 24.4069 19.7731H24.4205C24.4739 18.6032 24.4739 18.2912 24.4739 15.3016C24.4739 12.312 24.4602 11.9975 24.4069 10.8288C24.3957 10.1318 24.2653 9.4417 24.021 8.78759C23.6433 7.82643 22.8734 7.06614 21.8993 6.69254C21.2361 6.4487 20.5351 6.31994 19.8273 6.31196C18.6275 6.24465 18.3136 6.24465 15.2936 6.24465ZM15.3358 20.9736C13.0156 20.9751 10.923 19.5978 10.0339 17.4841C9.14488 15.3703 9.63448 12.9365 11.2744 11.3176C12.9143 9.69878 15.3815 9.21379 17.5254 10.0888C19.6693 10.9639 21.0675 13.0266 21.068 15.315C21.0646 18.4369 18.501 20.9676 15.3358 20.9736ZM15.3358 11.6414C13.2801 11.6414 11.6136 13.285 11.6136 15.3126C11.6136 17.3402 13.2801 18.9838 15.3358 18.9838C17.3915 18.9838 19.058 17.3402 19.058 15.3126C19.0532 13.287 17.3895 11.6461 15.3358 11.6414ZM21.2914 10.7688C20.5536 10.7661 19.9574 10.1748 19.9588 9.4472C19.9602 8.71959 20.5586 8.13045 21.2963 8.13045C22.034 8.13045 22.6325 8.71958 22.6338 9.44719C22.6342 9.79824 22.4928 10.135 22.2408 10.383C21.9889 10.631 21.6473 10.7698 21.2914 10.7688Z" fill="#E8E6E3"/>
</svg>
