<svg width="31" height="30" viewBox="0 0 31 30" fill="none" xmlns="http://www.w3.org/2000/svg">
<path d="M16.7037 25.6986H11.6666V11.0137H16.7037V13.4612C17.7774 12.1337 19.4056 11.3424 21.1426 11.3037C24.2663 11.3206 26.7868 13.7908 26.7778 16.8265V25.6986H21.7407V17.4384C21.5393 16.071 20.3326 15.0564 18.9112 15.0594C18.2894 15.0785 17.7026 15.343 17.286 15.792C16.8694 16.2409 16.6592 16.8354 16.7037 17.4384V25.6986ZM9.14812 25.6986H4.11108V11.0137H9.14812V25.6986ZM6.6296 8.56621C5.23866 8.56621 4.11108 7.47043 4.11108 6.11872C4.11108 4.76701 5.23866 3.67123 6.6296 3.67123C8.02054 3.67123 9.14812 4.76701 9.14812 6.11872C9.14812 6.76784 8.88278 7.39037 8.41046 7.84936C7.93815 8.30835 7.29756 8.56621 6.6296 8.56621Z" fill="#E8E6E3"/>
</svg>
