<svg width="126" height="18" viewBox="0 0 126 18" fill="none" xmlns="http://www.w3.org/2000/svg">
<path fill-rule="evenodd" clip-rule="evenodd" d="M9 0.5L11.781 6.09516L18 6.9979L13.5 11.3507L14.562 17.5L9 14.5952L3.438 17.5L4.5 11.3507L0 6.9979L6.219 6.09516L9 0.5V0.5Z" fill="#757575"/>
<path fill-rule="evenodd" clip-rule="evenodd" d="M36 0.5L38.781 6.09516L45 6.9979L40.5 11.3507L41.562 17.5L36 14.5952L30.438 17.5L31.5 11.3507L27 6.9979L33.219 6.09516L36 0.5V0.5Z" fill="#757575"/>
<path fill-rule="evenodd" clip-rule="evenodd" d="M63 0.5L65.781 6.09516L72 6.9979L67.5 11.3507L68.562 17.5L63 14.5952L57.438 17.5L58.5 11.3507L54 6.9979L60.219 6.09516L63 0.5V0.5Z" fill="#757575"/>
<path fill-rule="evenodd" clip-rule="evenodd" d="M90 0.5L92.781 6.09516L99 6.9979L94.5 11.3507L95.562 17.5L90 14.5952L84.438 17.5L85.5 11.3507L81 6.9979L87.219 6.09516L90 0.5V0.5Z" fill="#757575"/>
<path fill-rule="evenodd" clip-rule="evenodd" d="M117 0.5L119.781 6.09516L126 6.9979L121.5 11.3507L122.562 17.5L117 14.5952L111.438 17.5L112.5 11.3507L108 6.9979L114.219 6.09516L117 0.5V0.5Z" fill="#757575"/>
</svg>
