<svg width="158" height="52" viewBox="0 0 158 52" fill="none" xmlns="http://www.w3.org/2000/svg">
<circle cx="25.5489" cy="25.5489" r="25.5489" fill="#FF7B1B"/>
<path d="M25.7172 27.5758C28.1139 27.5758 30.5132 27.5952 32.9098 27.5646C33.693 27.5535 33.9512 27.6702 33.6874 28.5672C32.6988 31.9246 32.7349 31.9357 29.2358 31.9357C26.0533 31.9357 22.8735 31.9052 19.691 31.9552C18.8912 31.9691 18.5802 31.6802 18.3414 30.9582C17.2222 27.5674 17.2 27.5758 20.738 27.5758C22.3987 27.5758 24.0566 27.5758 25.7172 27.5758Z" fill="#FEFDFD"/>
<path d="M25.6118 33.6072C27.3641 33.6072 29.1192 33.6627 30.8687 33.585C31.924 33.5378 32.124 33.9765 31.999 34.8902C31.8296 36.1343 31.2186 37.1174 30.1273 37.6312C27.1253 39.0419 24.0566 39.0391 21.0491 37.6534C19.8466 37.098 19.2273 36.0177 19.1162 34.6597C19.0551 33.9155 19.2384 33.5683 20.0771 33.5905C21.9211 33.6433 23.7678 33.6072 25.6118 33.6072Z" fill="#FEFEFE"/>
<path d="M29.1525 12.8959C26.7309 12.3572 24.2871 12.3572 21.8683 12.9348C17.2056 14.0512 15.0117 17.2809 15.6643 22.063C15.7754 22.885 16.0142 23.6876 16.1725 24.5012C16.328 25.2983 16.7307 25.6148 17.5971 25.5954C20.2298 25.5371 22.8652 25.5732 25.5006 25.5732C25.5006 25.5676 25.5006 25.5621 25.5006 25.5565C27.5335 25.5565 29.569 25.5565 31.6018 25.5565C34.9565 25.5565 34.9565 25.5565 35.4647 22.2102C36.1979 17.3642 33.9068 13.954 29.1525 12.8959ZM31.5324 21.241C30.9354 21.502 30.0467 21.427 29.4357 21.4493C28.0056 21.4965 26.9947 21.452 25.5617 21.452C23.8066 21.452 22.0488 21.4243 20.2937 21.4631C19.5466 21.4798 19.3272 21.1965 19.3967 20.4828C19.5605 18.75 20.5658 17.6863 22.1154 17.1476C24.4093 16.3533 26.7392 16.3756 29.047 17.1476C29.9467 17.4475 30.6882 17.989 31.1992 18.8083C31.6518 19.5414 31.9184 21.0716 31.5324 21.241Z" fill="#FEFEFE"/>
<path d="M58.8129 19.9279H60.1409V31.1279H58.8129V19.9279ZM69.1652 31.4959C69.1652 32.5306 68.8878 33.2933 68.3332 33.7839C67.7892 34.2746 66.9785 34.5199 65.9012 34.5199C65.2612 34.5199 64.7438 34.4773 64.3492 34.3919C63.9652 34.3173 63.6345 34.2159 63.3572 34.0879L63.6932 32.9999C63.9385 33.0959 64.2105 33.1866 64.5092 33.2719C64.8078 33.3573 65.1972 33.3999 65.6772 33.3999C66.1252 33.3999 66.4878 33.3573 66.7652 33.2719C67.0532 33.1973 67.2825 33.0639 67.4532 32.8719C67.6238 32.6906 67.7412 32.4506 67.8052 32.1519C67.8692 31.8639 67.9012 31.5173 67.9012 31.1119V30.3439H67.8372C67.6238 30.6533 67.3518 30.8933 67.0212 31.0639C66.6905 31.2239 66.2585 31.3039 65.7252 31.3039C64.6478 31.3039 63.8532 30.9679 63.3412 30.2959C62.8398 29.6239 62.5892 28.5786 62.5892 27.1599C62.5892 25.7946 62.9145 24.7599 63.5652 24.0559C64.2158 23.3413 65.1758 22.9839 66.4452 22.9839C67.0532 22.9839 67.5705 23.0319 67.9972 23.1279C68.4345 23.2239 68.8238 23.3359 69.1652 23.4639V31.4959ZM65.9492 30.1839C66.4932 30.1839 66.9198 30.0506 67.2292 29.7839C67.5385 29.5066 67.7572 29.0799 67.8852 28.5039V24.4079C67.4585 24.2053 66.9145 24.1039 66.2532 24.1039C65.5278 24.1039 64.9572 24.3493 64.5412 24.8399C64.1252 25.3306 63.9172 26.0986 63.9172 27.1439C63.9172 27.5919 63.9545 28.0026 64.0292 28.3759C64.1038 28.7493 64.2212 29.0693 64.3812 29.3359C64.5412 29.6026 64.7492 29.8106 65.0052 29.9599C65.2612 30.1093 65.5758 30.1839 65.9492 30.1839ZM76.7669 31.1279V26.5679C76.7669 25.7359 76.6443 25.1119 76.3989 24.6959C76.1643 24.2693 75.7269 24.0559 75.0869 24.0559C74.5216 24.0559 74.0523 24.2106 73.6789 24.5199C73.3163 24.8186 73.0603 25.1973 72.9109 25.6559V31.1279H71.6309V23.1279H72.5269L72.7669 24.1039H72.8309C73.0869 23.7626 73.4283 23.4853 73.8549 23.2719C74.2923 23.0479 74.8096 22.9359 75.4069 22.9359C75.8443 22.9359 76.2283 22.9893 76.5589 23.0959C76.8896 23.1919 77.1616 23.3679 77.3749 23.6239C77.5989 23.8799 77.7643 24.2266 77.8709 24.6639C77.9883 25.0906 78.0469 25.6346 78.0469 26.2959V31.1279H76.7669ZM80.6529 23.1279H81.9329V31.1279H80.6529V23.1279ZM80.3809 20.6959C80.3809 20.4506 80.4609 20.2426 80.6209 20.0719C80.7916 19.8906 81.0049 19.7999 81.2609 19.7999C81.5169 19.7999 81.7356 19.8906 81.9169 20.0719C82.0983 20.2426 82.1889 20.4506 82.1889 20.6959C82.1889 20.9413 82.0983 21.1439 81.9169 21.3039C81.7356 21.4639 81.5169 21.5439 81.2609 21.5439C81.0049 21.5439 80.7916 21.4639 80.6209 21.3039C80.4609 21.1439 80.3809 20.9413 80.3809 20.6959ZM90.1182 30.5999C89.5955 30.9733 88.9502 31.2026 88.1822 31.2879L87.8942 31.8159C88.3422 31.9013 88.6622 32.0399 88.8542 32.2319C89.0568 32.4239 89.1582 32.6853 89.1582 33.0159C89.1582 33.4319 88.9875 33.7733 88.6462 34.0399C88.3048 34.3173 87.8248 34.4559 87.2062 34.4559C87.0888 34.4559 86.9715 34.4506 86.8542 34.4399C86.7368 34.4293 86.6142 34.4133 86.4862 34.3919L86.6302 33.7679C86.6942 33.7786 86.7528 33.7839 86.8062 33.7839C86.8595 33.7839 86.9128 33.7839 86.9662 33.7839C87.2008 33.7839 87.3822 33.7626 87.5102 33.7199C87.6488 33.6773 87.7502 33.6239 87.8142 33.5599C87.8888 33.5066 87.9315 33.4426 87.9422 33.3679C87.9635 33.2933 87.9742 33.2239 87.9742 33.1599C87.9742 32.8613 87.5155 32.6639 86.5982 32.5679L87.2702 31.3039C86.7155 31.2719 86.2462 31.1493 85.8622 30.9359C85.4782 30.7226 85.1635 30.4346 84.9182 30.0719C84.6728 29.7093 84.4915 29.2826 84.3742 28.7919C84.2675 28.2906 84.2142 27.7359 84.2142 27.1279C84.2142 25.7733 84.5128 24.7386 85.1102 24.0239C85.7075 23.2986 86.5662 22.9359 87.6862 22.9359C88.1982 22.9359 88.6302 22.9786 88.9822 23.0639C89.3448 23.1386 89.6702 23.2506 89.9582 23.3999L89.5902 24.5039C89.3448 24.3653 89.0728 24.2586 88.7742 24.1839C88.4755 24.0986 88.1555 24.0559 87.8142 24.0559C86.2995 24.0559 85.5422 25.0799 85.5422 27.1279C85.5422 27.5333 85.5795 27.9226 85.6542 28.2959C85.7395 28.6586 85.8728 28.9839 86.0542 29.2719C86.2462 29.5493 86.4915 29.7733 86.7902 29.9439C87.0995 30.1039 87.4782 30.1839 87.9262 30.1839C88.3102 30.1839 88.6515 30.1306 88.9502 30.0239C89.2595 29.9066 89.5102 29.7733 89.7022 29.6239L90.1182 30.5999ZM91.7529 23.7199C92.1583 23.4746 92.6276 23.2933 93.1609 23.1759C93.7049 23.0586 94.2703 22.9999 94.8569 22.9999C95.4116 22.9999 95.8543 23.0746 96.1849 23.2239C96.5263 23.3733 96.7823 23.5706 96.9529 23.8159C97.1343 24.0506 97.2516 24.3119 97.3049 24.5999C97.3689 24.8879 97.4009 25.1759 97.4009 25.4639C97.4009 26.1039 97.3849 26.7279 97.3529 27.3359C97.3209 27.9439 97.3049 28.5199 97.3049 29.0639C97.3049 29.4586 97.3209 29.8319 97.3529 30.1839C97.3849 30.5359 97.4436 30.8613 97.5289 31.1599H96.5849L96.2489 30.0399H96.1689C96.0729 30.1893 95.9503 30.3386 95.8009 30.4879C95.6623 30.6266 95.4916 30.7546 95.2889 30.8719C95.0863 30.9786 94.8516 31.0693 94.5849 31.1439C94.3183 31.2186 94.0143 31.2559 93.6729 31.2559C93.3316 31.2559 93.0116 31.2026 92.7129 31.0959C92.4249 30.9893 92.1743 30.8399 91.9609 30.6479C91.7476 30.4453 91.5769 30.2053 91.4489 29.9279C91.3316 29.6506 91.2729 29.3359 91.2729 28.9839C91.2729 28.5146 91.3689 28.1253 91.5609 27.8159C91.7529 27.4959 92.0196 27.2453 92.3609 27.0639C92.7129 26.8719 93.1289 26.7386 93.6089 26.6639C94.0996 26.5786 94.6383 26.5359 95.2249 26.5359C95.3743 26.5359 95.5183 26.5359 95.6569 26.5359C95.8063 26.5359 95.9556 26.5466 96.1049 26.5679C96.1369 26.2479 96.1529 25.9599 96.1529 25.7039C96.1529 25.1173 96.0356 24.7066 95.8009 24.4719C95.5663 24.2373 95.1396 24.1199 94.5209 24.1199C94.3396 24.1199 94.1423 24.1359 93.9289 24.1679C93.7263 24.1893 93.5129 24.2266 93.2889 24.2799C93.0756 24.3226 92.8676 24.3813 92.6649 24.4559C92.4729 24.5199 92.3023 24.5946 92.1529 24.6799L91.7529 23.7199ZM94.0249 30.1359C94.3236 30.1359 94.5903 30.0986 94.8249 30.0239C95.0596 29.9386 95.2623 29.8373 95.4329 29.7199C95.6036 29.5919 95.7423 29.4533 95.8489 29.3039C95.9663 29.1546 96.0516 29.0106 96.1049 28.8719V27.5439C95.9556 27.5333 95.8009 27.5279 95.6409 27.5279C95.4916 27.5173 95.3423 27.5119 95.1929 27.5119C94.8623 27.5119 94.5369 27.5333 94.2169 27.5759C93.9076 27.6079 93.6303 27.6773 93.3849 27.7839C93.1503 27.8799 92.9583 28.0186 92.8089 28.1999C92.6703 28.3706 92.6009 28.5893 92.6009 28.8559C92.6009 29.2293 92.7343 29.5386 93.0009 29.7839C93.2676 30.0186 93.6089 30.1359 94.0249 30.1359ZM92.3929 20.6319C92.7023 20.2799 92.9849 20.0399 93.2409 19.9119C93.4969 19.7733 93.7316 19.7039 93.9449 19.7039C94.1263 19.7039 94.2916 19.7413 94.4409 19.8159C94.6009 19.8799 94.7503 19.9546 94.8889 20.0399C95.0383 20.1146 95.1769 20.1839 95.3049 20.2479C95.4436 20.3119 95.5876 20.3439 95.7369 20.3439C95.9716 20.3439 96.2169 20.2159 96.4729 19.9599L96.8569 20.6479C96.5796 20.9573 96.3236 21.1706 96.0889 21.2879C95.8649 21.3946 95.6569 21.4479 95.4649 21.4479C95.2943 21.4479 95.1343 21.4159 94.9849 21.3519C94.8356 21.2879 94.6863 21.2186 94.5369 21.1439C94.3983 21.0586 94.2543 20.9839 94.1049 20.9199C93.9663 20.8453 93.8223 20.8079 93.6729 20.8079C93.5343 20.8079 93.3903 20.8453 93.2409 20.9199C93.1023 20.9946 92.9423 21.1226 92.7609 21.3039L92.3929 20.6319ZM99.3704 27.1279C99.3704 25.7733 99.6691 24.7386 100.266 24.0239C100.874 23.2986 101.744 22.9359 102.874 22.9359C103.472 22.9359 103.989 23.0373 104.426 23.2399C104.874 23.4319 105.242 23.7146 105.53 24.0879C105.818 24.4506 106.032 24.8933 106.17 25.4159C106.309 25.9279 106.378 26.4986 106.378 27.1279C106.378 28.4826 106.074 29.5226 105.466 30.2479C104.869 30.9626 104.005 31.3199 102.874 31.3199C102.277 31.3199 101.754 31.2239 101.306 31.0319C100.869 30.8293 100.506 30.5466 100.218 30.1839C99.9304 29.8106 99.7171 29.3679 99.5784 28.8559C99.4398 28.3333 99.3704 27.7573 99.3704 27.1279ZM100.698 27.1279C100.698 27.5333 100.736 27.9226 100.81 28.2959C100.896 28.6693 101.024 28.9946 101.194 29.2719C101.365 29.5493 101.589 29.7733 101.866 29.9439C102.144 30.1146 102.48 30.1999 102.874 30.1999C104.325 30.2106 105.05 29.1866 105.05 27.1279C105.05 26.7119 105.008 26.3173 104.922 25.9439C104.848 25.5706 104.725 25.2453 104.554 24.9679C104.384 24.6906 104.16 24.4719 103.882 24.3119C103.605 24.1413 103.269 24.0559 102.874 24.0559C101.424 24.0453 100.698 25.0693 100.698 27.1279ZM112.79 19.9279C112.993 19.8959 113.217 19.8746 113.462 19.8639C113.718 19.8426 113.98 19.8319 114.246 19.8319C114.524 19.8213 114.79 19.8159 115.046 19.8159C115.313 19.8053 115.558 19.7999 115.782 19.7999C116.678 19.7999 117.452 19.9386 118.102 20.2159C118.764 20.4933 119.308 20.8826 119.734 21.3839C120.161 21.8746 120.476 22.4666 120.678 23.1599C120.892 23.8533 120.998 24.6159 120.998 25.4479C120.998 26.2053 120.897 26.9359 120.694 27.6399C120.502 28.3333 120.193 28.9519 119.766 29.4959C119.34 30.0293 118.785 30.4613 118.102 30.7919C117.42 31.1119 116.593 31.2719 115.622 31.2719C115.452 31.2719 115.228 31.2666 114.95 31.2559C114.684 31.2559 114.406 31.2453 114.118 31.2239C113.83 31.2133 113.564 31.2026 113.318 31.1919C113.073 31.1813 112.897 31.1653 112.79 31.1439V19.9279ZM115.814 20.9839C115.676 20.9839 115.521 20.9839 115.35 20.9839C115.19 20.9839 115.03 20.9893 114.87 20.9999C114.71 21.0106 114.561 21.0213 114.422 21.0319C114.294 21.0426 114.193 21.0533 114.118 21.0639V30.0239C114.172 30.0346 114.273 30.0453 114.422 30.0559C114.572 30.0559 114.726 30.0613 114.886 30.0719C115.046 30.0719 115.201 30.0773 115.35 30.0879C115.5 30.0879 115.601 30.0879 115.654 30.0879C116.401 30.0879 117.025 29.9599 117.526 29.7039C118.038 29.4479 118.444 29.1066 118.742 28.6799C119.052 28.2426 119.27 27.7466 119.398 27.1919C119.526 26.6266 119.59 26.0453 119.59 25.4479C119.59 24.9253 119.532 24.4026 119.414 23.8799C119.297 23.3466 119.094 22.8666 118.806 22.4399C118.518 22.0133 118.129 21.6666 117.638 21.3999C117.158 21.1226 116.55 20.9839 115.814 20.9839ZM123.403 23.1279H124.683V31.1279H123.403V23.1279ZM123.131 20.6959C123.131 20.4506 123.211 20.2426 123.371 20.0719C123.542 19.8906 123.755 19.7999 124.011 19.7999C124.267 19.7999 124.486 19.8906 124.667 20.0719C124.848 20.2426 124.939 20.4506 124.939 20.6959C124.939 20.9413 124.848 21.1439 124.667 21.3039C124.486 21.4639 124.267 21.5439 124.011 21.5439C123.755 21.5439 123.542 21.4639 123.371 21.3039C123.211 21.1439 123.131 20.9413 123.131 20.6959ZM133.54 31.4959C133.54 32.5306 133.263 33.2933 132.708 33.7839C132.164 34.2746 131.354 34.5199 130.276 34.5199C129.636 34.5199 129.119 34.4773 128.724 34.3919C128.34 34.3173 128.01 34.2159 127.732 34.0879L128.068 32.9999C128.314 33.0959 128.586 33.1866 128.884 33.2719C129.183 33.3573 129.572 33.3999 130.052 33.3999C130.5 33.3999 130.863 33.3573 131.14 33.2719C131.428 33.1973 131.658 33.0639 131.828 32.8719C131.999 32.6906 132.116 32.4506 132.18 32.1519C132.244 31.8639 132.276 31.5173 132.276 31.1119V30.3439H132.212C131.999 30.6533 131.727 30.8933 131.396 31.0639C131.066 31.2239 130.634 31.3039 130.1 31.3039C129.023 31.3039 128.228 30.9679 127.716 30.2959C127.215 29.6239 126.964 28.5786 126.964 27.1599C126.964 25.7946 127.29 24.7599 127.94 24.0559C128.591 23.3413 129.551 22.9839 130.82 22.9839C131.428 22.9839 131.946 23.0319 132.372 23.1279C132.81 23.2239 133.199 23.3359 133.54 23.4639V31.4959ZM130.324 30.1839C130.868 30.1839 131.295 30.0506 131.604 29.7839C131.914 29.5066 132.132 29.0799 132.26 28.5039V24.4079C131.834 24.2053 131.29 24.1039 130.628 24.1039C129.903 24.1039 129.332 24.3493 128.916 24.8399C128.5 25.3306 128.292 26.0986 128.292 27.1439C128.292 27.5919 128.33 28.0026 128.404 28.3759C128.479 28.7493 128.596 29.0693 128.756 29.3359C128.916 29.6026 129.124 29.8106 129.38 29.9599C129.636 30.1093 129.951 30.1839 130.324 30.1839ZM136.278 23.1279H137.558V31.1279H136.278V23.1279ZM136.006 20.6959C136.006 20.4506 136.086 20.2426 136.246 20.0719C136.417 19.8906 136.63 19.7999 136.886 19.7999C137.142 19.7999 137.361 19.8906 137.542 20.0719C137.723 20.2426 137.814 20.4506 137.814 20.6959C137.814 20.9413 137.723 21.1439 137.542 21.3039C137.361 21.4639 137.142 21.5439 136.886 21.5439C136.63 21.5439 136.417 21.4639 136.246 21.3039C136.086 21.1439 136.006 20.9413 136.006 20.6959ZM139.231 23.1279H140.479V21.5439L141.759 21.1759V23.1279H143.935V24.2479H141.759V28.6799C141.759 29.2346 141.829 29.6293 141.967 29.8639C142.106 30.0879 142.341 30.1999 142.671 30.1999C142.949 30.1999 143.183 30.1733 143.375 30.1199C143.567 30.0559 143.781 29.9759 144.015 29.8799L144.303 30.8559C144.015 30.9946 143.701 31.1066 143.359 31.1919C143.018 31.2773 142.65 31.3199 142.255 31.3199C141.605 31.3199 141.146 31.1386 140.879 30.7759C140.613 30.4026 140.479 29.7839 140.479 28.9199V24.2479H139.231V23.1279ZM145.581 23.7199C145.986 23.4746 146.456 23.2933 146.989 23.1759C147.533 23.0586 148.098 22.9999 148.685 22.9999C149.24 22.9999 149.682 23.0746 150.013 23.2239C150.354 23.3733 150.61 23.5706 150.781 23.8159C150.962 24.0506 151.08 24.3119 151.133 24.5999C151.197 24.8879 151.229 25.1759 151.229 25.4639C151.229 26.1039 151.213 26.7279 151.181 27.3359C151.149 27.9439 151.133 28.5199 151.133 29.0639C151.133 29.4586 151.149 29.8319 151.181 30.1839C151.213 30.5359 151.272 30.8613 151.357 31.1599H150.413L150.077 30.0399H149.997C149.901 30.1893 149.778 30.3386 149.629 30.4879C149.49 30.6266 149.32 30.7546 149.117 30.8719C148.914 30.9786 148.68 31.0693 148.413 31.1439C148.146 31.2186 147.842 31.2559 147.501 31.2559C147.16 31.2559 146.84 31.2026 146.541 31.0959C146.253 30.9893 146.002 30.8399 145.789 30.6479C145.576 30.4453 145.405 30.2053 145.277 29.9279C145.16 29.6506 145.101 29.3359 145.101 28.9839C145.101 28.5146 145.197 28.1253 145.389 27.8159C145.581 27.4959 145.848 27.2453 146.189 27.0639C146.541 26.8719 146.957 26.7386 147.437 26.6639C147.928 26.5786 148.466 26.5359 149.053 26.5359C149.202 26.5359 149.346 26.5359 149.485 26.5359C149.634 26.5359 149.784 26.5466 149.933 26.5679C149.965 26.2479 149.981 25.9599 149.981 25.7039C149.981 25.1173 149.864 24.7066 149.629 24.4719C149.394 24.2373 148.968 24.1199 148.349 24.1199C148.168 24.1199 147.97 24.1359 147.757 24.1679C147.554 24.1893 147.341 24.2266 147.117 24.2799C146.904 24.3226 146.696 24.3813 146.493 24.4559C146.301 24.5199 146.13 24.5946 145.981 24.6799L145.581 23.7199ZM147.853 30.1359C148.152 30.1359 148.418 30.0986 148.653 30.0239C148.888 29.9386 149.09 29.8373 149.261 29.7199C149.432 29.5919 149.57 29.4533 149.677 29.3039C149.794 29.1546 149.88 29.0106 149.933 28.8719V27.5439C149.784 27.5333 149.629 27.5279 149.469 27.5279C149.32 27.5173 149.17 27.5119 149.021 27.5119C148.69 27.5119 148.365 27.5333 148.045 27.5759C147.736 27.6079 147.458 27.6773 147.213 27.7839C146.978 27.8799 146.786 28.0186 146.637 28.1999C146.498 28.3706 146.429 28.5893 146.429 28.8559C146.429 29.2293 146.562 29.5386 146.829 29.7839C147.096 30.0186 147.437 30.1359 147.853 30.1359ZM155.071 29.1599C155.071 29.5333 155.135 29.7999 155.263 29.9599C155.391 30.1199 155.572 30.1999 155.807 30.1999C155.945 30.1999 156.095 30.1893 156.255 30.1679C156.415 30.1466 156.596 30.0986 156.799 30.0239L156.943 31.0319C156.772 31.1173 156.532 31.1866 156.223 31.2399C155.924 31.2933 155.663 31.3199 155.439 31.3199C154.959 31.3199 154.564 31.1866 154.255 30.9199C153.945 30.6426 153.791 30.1786 153.791 29.5279V19.9279H155.071V29.1599Z" fill="#FF7B1B"/>
</svg>
